<svg xmlns="http://www.w3.org/2000/svg" viewBox="0 0 714.17 979.33" version="1.0"><path d="M199.98 412.67c0-35.62 28.88-64.5 64.5-64.5 35.63 0 64.51 28.88 64.51 64.5 0 35.63-28.88 64.51-64.51 64.51-35.62 0-64.5-28.88-64.5-64.51z" transform="translate(-126.617 -551.299) scale(1.5834)" style="fill:red"/><path d="m79.966 719.19 103 195c27.36 49.84 62.69 64.18 106 43l183-66c36.72-20.04 54.39-43.04 53-69l-64-106-131-121-179 34c-13.2.2-22.53 6.2-28 18-22.72 1.05-37.057 25.05-43.004 72z" transform="translate(-126.617 -551.299) scale(1.5834)" style="fill:#000"/><path d="M122.97 665.19c-.07-19.2 5.27-30.53 16-34l192-36 86 83c6.77 6.58 9.1 13.24 7 20 2.52 8.64 1.52 16.31-3 23l-190 59c-23.57.11-36.91-3.23-40-10l-68-105z" transform="translate(-126.617 -551.299) scale(1.5834)" style="fill:#000"/><path d="m410.69 672.14 6.28 6.05c1.28 1.24 2.4 2.49 3.36 3.74-3.01 10.03-10.14 17.45-21.36 22.26l-165 49c-16.28 3.21-28.28-.45-36-11 7.49 5.82 18.82 7.16 34 4l166-51c8.9-3.73 13.15-11.42 12.72-23.05z" transform="translate(-126.617 -551.299) scale(1.5834)" style="fill:#fff"/><path d="M124.28 650.46c.51-2.45 1.18-4.69 2-6.7l64.69 104.43c3.19 6.26 13 8 24 12-12.3 1.86-21.3-.14-27-6l-63.69-103.73zm387.44 209.78c-8.85 11-22.1 21.32-39.75 30.95l-183 66c-43.31 21.18-78.64 6.84-106-43l-9.04-17.11 8.04-6.89c9 30 76 41 125 8l12-51 131-43 56 34 5.75 22.05z" transform="translate(-126.617 -551.299) scale(1.5834)" style="fill:#fff"/><path d="M524.04 835.1c-4.2 20.74-21.55 39.44-52.07 56.09l-183 66c-39.71 19.42-72.71 8.98-99.02-31.31 40.68 18.04 80.35 17.82 119.02-.69l192-72c7.29-3.07 14.99-9.1 23.07-18.09z" transform="translate(-126.617 -551.299) scale(1.5834)" style="fill:#000"/><path d="M90.776 674.67c2.955-6.86 6.377-12.43 10.264-16.73l88.93 147.25-10 26-89.194-156.52z" transform="translate(-126.617 -551.299) scale(1.5834)" style="fill:#fff"/><path d="m307.97 837.19 182-65-4 43-190 68 12-46zm-113-244.5c0-18.5 33.13-33.5 74-33.5s74 15 74 33.5-33.13 33.5-74 33.5-74-15-74-33.5z" transform="translate(-126.617 -551.299) scale(1.5834)" style="fill:#000"/><path d="M195.49 596.69c3 11.42 18.7 21.08 40.57 26.01v8c-24.38-5.5-41.09-16.87-41.09-30.01 0-1.35.17-2.69.52-4z" transform="translate(-126.617 -551.299) scale(1.5834)" style="fill:#000"/><path d="M268.97 626.19c13.01 0 25.25-1.52 35.92-4.21v8c-10.67 2.69-22.91 4.21-35.92 4.21-11.83 0-23-1.25-32.91-3.49v-8c9.91 2.24 21.08 3.49 32.91 3.49z" transform="translate(-126.617 -551.299) scale(1.5834)" style="fill:#fff"/><path d="M342.97 600.69c0 12.6-15.37 23.58-38.08 29.29v-8c20.27-5.1 34.69-14.39 37.55-25.29.35 1.31.53 2.65.53 4z" transform="translate(-126.617 -551.299) scale(1.5834)" style="fill:#000"/><path d="M345.78 668.14c-3.9 7.09-9.22 12.95-15.58 17.74l-4.98-63.43c11.09-5.88 17.75-13.47 17.75-21.76 0-1.31 2.81 67.45 2.81 67.45z" transform="translate(-126.617 -551.299) scale(1.5834)" style="fill:#fff"/><path d="M316.24 626.46c3.24-1.22 6.25-2.56 8.98-4.01l4.98 63.43c-3.28 2.47-6.83 4.64-10.59 6.54l-3.37-65.96zm-47.27 7.73c17.97 0 34.45-2.9 47.27-7.73l3.37 65.96c-21.19 10.7-49.07 12.66-73.1 9.26l-1.61-69.3c7.58 1.18 15.66 1.81 24.07 1.81z" transform="translate(-126.617 -551.299) scale(1.5834)" style="fill:#000"/><path d="M194.97 601c.16 8.34 7.07 15.96 18.43 21.82l.48 69.76c-9.91-4.64-16.71-10.46-18.43-16.82 0 0-.44-69.44-.48-74.76z" transform="translate(-126.617 -551.299) scale(1.5834)" style="fill:#fff"/><path d="M246.51 701.68c-12.39-1.76-23.75-4.95-32.63-9.1l-.48-69.76c8.4 4.32 19.22 7.65 31.5 9.56l1.61 69.3z" transform="translate(-126.617 -551.299) scale(1.5834)" style="fill:#000"/><path d="M233.78 578.43c0-7.89 15.69-14.29 35.05-14.29 19.35 0 35.04 6.4 35.04 14.29s-15.69 14.29-35.04 14.29c-19.36 0-35.05-6.4-35.05-14.29z" transform="translate(-126.617 -551.299) scale(1.5834)" style="fill:#fff"/><path d="M303.93 578.62c-.25 7.8-15.91 14.1-35.1 14.1-19.2 0-34.79-6.3-35.05-14.1v14c.26 7.8 15.85 14.1 35.05 14.1 19.19 0 34.85-6.3 35.1-14.1v-14.1m-65.37-106.76c2.31 1.01 4.68 1.89 7.17 2.65l7.55 114.06c-4.03-.78-6.74-1.84-6.93-2.99l-7.79-113.72z" transform="translate(-126.617 -551.299) scale(1.5834)" style="fill:#000"/><path d="M290.15 583.57c-1.99 7.12-25.03 7.21-36.87 4.9l-7.55-114.06c5.94 1.8 12.23 2.77 18.75 2.77 11.04 0 21.42-2.77 30.5-7.65l-4.83 114.04z" transform="translate(-126.617 -551.299) scale(1.5834)" style="fill:red"/><path d="M240.84 367.19c0-8.04 11.57-14.56 25.84-14.56 14.28 0 25.85 6.52 25.85 14.56s-11.57 14.57-25.85 14.57c-14.27 0-25.84-6.53-25.84-14.57z" transform="translate(-126.617 -551.299) scale(1.5834)" style="fill:#fff"/><path d="M199.98 412.67c0-1.68.06-3.35.19-5 2.55 33.29 30.37 59.51 64.31 59.51s61.76-26.22 64.32-59.51c.12 1.65.19 3.32.19 5 0 35.63-28.88 64.51-64.51 64.51-35.62 0-64.5-28.88-64.5-64.51z" transform="translate(-126.617 -551.299) scale(1.5834)" style="fill:#000"/><path d="M173.97 824.7c0-27.9 32.68-50.52 73-50.52 37.23 0 67.96 19.29 72.45 44.21 0 27.9-32.69 50.52-73.01 50.52-37.23 0-67.96-19.29-72.44-44.21z" transform="translate(-126.617 -551.299) scale(1.5834)" style="fill:red"/><path d="M173.97 824.7c0-27.9 32.68-50.52 73-50.52s73.01 22.62 73.01 50.52-32.69 50.52-73.01 50.52-73-22.62-73-50.52z" transform="translate(-126.617 -551.299) scale(1.5834)" style="stroke:#000;fill:none"/><path d="M293.97 802.72c3.23 4.23 5.03 8.96 5.03 13.95 0 17.94-23.28 32.48-52 32.48-23.73 0-43.75-9.93-49.99-23.5 8.36 10.95 26.25 18.52 46.97 18.52 28.72 0 52-14.54 52-32.48 0-3.11-.7-6.12-2.01-8.97z" transform="translate(-126.617 -551.299) scale(1.5834)" style="fill:#000"/><path d="M293.97 802.72c1.31 2.85 2.01 5.86 2.01 8.97 0 17.94-23.28 32.48-52 32.48-20.72 0-38.61-7.57-46.97-18.52-1.31-2.85-2.01-5.86-2.01-8.98 0-17.93 23.28-32.47 52-32.47 20.72 0 38.61 7.57 46.97 18.52z" transform="translate(-126.617 -551.299) scale(1.5834)" style="fill:red"/><path d="M319.42 818.39c.37 2.07.56 4.17.56 6.31 0 27.9-32.69 50.52-73.01 50.52s-73-22.62-73-50.52c4.48 24.92 35.21 44.21 72.44 44.21 40.32 0 73.01-22.62 73.01-50.52z" transform="translate(-126.617 -551.299) scale(1.5834)" style="fill:#000"/><path d="M319.98 888.88c-13.54 34.43-80.88 43.42-119.13 23.81l-.01-48.83c12.6 7.11 28.64 11.36 46.13 11.36 40.32 0 73.01-22.62 73.01-50.52v64.18z" transform="translate(-126.617 -551.299) scale(1.5834)" style="fill:#000"/><path d="M174.42 829.4c1.79 13.88 11.7 26.12 26.42 34.46l.01 48.83c-9.42-4.83-17.07-11.4-21.7-19.75l-4.73-63.54a37.72 37.72 0 0 1-.29-3.84l.29 3.84z" transform="translate(-126.617 -551.299) scale(1.5834)" style="fill:#fff"/><path d="M319.98 842.66c-10.62 21.92-39.75 37.66-74.01 37.66-30.66 0-57.21-12.6-70.06-30.96l-1.49-19.96a37.72 37.72 0 0 1-.29-3.84l.29 3.84c3.32 25.72 34.49 45.82 72.55 45.82 40.32 0 73.01-22.62 73.01-50.52v17.96zm210.13-20.35c-3.16 8.04-9.26 14.69-17.26 19.95l-.01-51.5c10.79-8.83 17.27-20.2 17.27-32.62v64.17z" transform="translate(-126.617 -551.299) scale(1.5834)" style="fill:#fff"/><path d="M512.85 842.26c-19.76 12.93-51.03 17.11-77.81 11.92V806.3c6.99 1.54 14.38 2.35 22.06 2.35 22.35 0 42.35-6.94 55.74-17.89l.01 51.5zm-127.8-80.21c2.25 21.15 22.55 38.22 49.99 44.25v47.88c-20.07-3.9-37.59-13.08-45.76-27.8 0 0-4.73-63.55-4.23-64.33-.67-.48-.76-1.76-.79-3.05 0 0 .29 3.83.79 3.05z" transform="translate(-126.617 -551.299) scale(1.5834)" style="fill:#000"/><path d="M384.98 762.18c0-27.9 32.69-50.51 73.01-50.51 37.23 0 67.96 19.28 72.45 44.2 0 27.9-32.69 50.52-73.01 50.52-37.23 0-67.96-19.28-72.45-44.21z" transform="translate(-126.617 -551.299) scale(1.5834)" style="fill:red"/><path d="M504.99 740.2c3.22 4.23 5.03 8.96 5.03 13.96 0 17.93-23.28 32.47-52 32.47-23.73 0-43.75-9.93-49.99-23.5 8.36 10.95 26.25 18.52 46.97 18.52 28.72 0 52-14.54 52-32.47 0-3.12-.7-6.13-2.01-8.98z" transform="translate(-126.617 -551.299) scale(1.5834)" style="fill:#000"/><path d="M504.99 740.2c1.31 2.85 2.01 5.86 2.01 8.98 0 17.93-23.28 32.47-52 32.47-20.72 0-38.61-7.57-46.97-18.52-1.31-2.85-2.01-5.86-2.01-8.97 0-17.94 23.28-32.48 52-32.48 20.72 0 38.61 7.57 46.97 18.52z" transform="translate(-126.617 -551.299) scale(1.5834)" style="fill:red"/><path d="M530.44 755.87c.37 2.07.56 4.18.56 6.31 0 27.9-32.69 50.52-73.01 50.52s-73.01-22.62-73.01-50.52c4.49 24.93 35.22 44.21 72.45 44.21 40.32 0 73.01-22.62 73.01-50.52z" transform="translate(-126.617 -551.299) scale(1.5834)" style="fill:#000"/><path d="M531 780.14c-10.62 21.92-39.75 37.66-74.02 37.66-30.66 0-57.2-12.6-70.06-30.95l-1.48-19.97a34.69 34.69 0 0 1-.29-3.83l.29 3.83c3.32 25.72 34.49 45.82 72.55 45.82 40.32 0 73.01-22.62 73.01-50.52v17.96z" transform="translate(-126.617 -551.299) scale(1.5834)" style="fill:#fff"/></svg>